<?xml version="1.0" encoding="UTF-8"?>
<svg width="254px" height="42px" viewBox="0 0 254 42" version="1.1" xmlns="http://www.w3.org/2000/svg" xmlns:xlink="http://www.w3.org/1999/xlink">
    <!-- Generator: Sketch 48.2 (47327) - http://www.bohemiancoding.com/sketch -->
    <title>Group 2</title>
    <desc>Created with Sketch.</desc>
    <defs></defs>
    <g id="Page-1" stroke="none" stroke-width="1" fill="none" fill-rule="evenodd">
        <g id="Group-2">
            <g id="group">
                <g id="Group" transform="translate(0.000000, 0.178000)">
                    <g id="a-link" fill="#5EDBCE" fill-rule="nonzero">
                        <polygon id="a" points="0 0 35.028 0 35.028 10.023 0 10.023"></polygon>
                    </g>
                    <polygon id="Shape" stroke="#00DFCE" points="0.5 0.5 34.528 0.5 34.528 9.523 0.5 9.523"></polygon>
                </g>
                <g id="Group" transform="translate(0.000000, 10.178000)">
                    <g id="b-link" fill="#5EDBA4" fill-rule="nonzero">
                        <polygon id="b" points="0 0.023 17.359 0.023 35.028 10.047 17.358 10.047"></polygon>
                    </g>
                    <polygon id="Shape" stroke="#5EDBA4" points="1.866 0.523 17.492 9.547 33.133 9.547 17.227 0.523"></polygon>
                </g>
                <g id="Group" transform="translate(0.000000, 30.178000)">
                    <g id="c-link" fill="#5EDBA4" fill-rule="nonzero">
                        <polygon id="c" points="0 0.07 17.37 0.07 34.74 10.05 17.37 10.953"></polygon>
                    </g>
                    <polygon id="Shape" stroke="#5EDBA4" points="1.74 0.57 17.502 10.446 33.022 9.638 17.237 0.57"></polygon>
                </g>
                <g id="Group" transform="translate(0.000000, 20.178000)">
                    <g id="d-link" fill="#5EDBCE" fill-rule="nonzero">
                        <polygon id="d" points="0 0.047 35.028 0.047 35.028 10.07 0 10.07"></polygon>
                    </g>
                    <polygon id="Shape" stroke="#00DFCE" points="0.5 0.547 34.528 0.547 34.528 9.57 0.5 9.57"></polygon>
                </g>
            </g>
            <path d="M67.1467764,8.98628258 C66.6968427,8.87379916 66.2937832,8.78943787 65.9375857,8.73319616 C65.5813883,8.67695445 65.1220879,8.64883402 64.5596708,8.64883402 C63.6598035,8.64883402 62.9099253,8.82693009 62.3100137,9.18312757 C61.7101022,9.53932505 61.4101509,10.2985767 61.4101509,11.4609053 L61.4101509,13.260631 L67.1467764,13.260631 L67.1467764,20.9657064 L61.4101509,20.9657064 L61.4101509,41.21262 L50.3868313,41.21262 L50.3868313,20.9657064 L46,20.9657064 L46,13.260631 L50.3868313,13.260631 L50.3868313,11.7421125 C50.3868313,9.34246628 50.7055295,7.4302769 51.3429355,6.00548697 C51.9803416,4.58069704 52.814581,3.50274714 53.845679,2.77160494 C54.876777,2.04046274 56.0484617,1.56241539 57.3607682,1.33744856 C58.6730747,1.11248173 60.0228554,1 61.4101509,1 C62.6849629,1 63.8004067,1.07498782 64.7565158,1.22496571 C65.7126248,1.37494359 66.5093704,1.56241314 67.1467764,1.78737997 L67.1467764,8.98628258 Z M93.4115226,23.1591221 C92.6616332,22.9716497 92.0336102,22.840421 91.5274348,22.7654321 C91.0212595,22.6904432 90.3932365,22.6529492 89.6433471,22.6529492 C88.5935018,22.6529492 87.6092867,22.7935514 86.6906722,23.0747599 C85.7720576,23.3559685 84.975312,23.8246424 84.3004115,24.4807956 C83.625511,25.1369489 83.1005963,26.0274292 82.7256516,27.1522634 C82.3507069,28.2770975 82.1632373,29.6831191 82.1632373,31.3703704 L82.1632373,41.21262 L71.1399177,41.21262 L71.1399177,13.260631 L82.1632373,13.260631 L82.1632373,17.7037037 C82.4631931,17.0662977 82.8849996,16.4476482 83.4286694,15.8477366 C83.9723393,15.2478251 84.6003622,14.7135369 85.3127572,14.244856 C86.0251522,13.7761751 86.8218977,13.401236 87.7030178,13.1200274 C88.5841379,12.8388189 89.5308591,12.6982167 90.5432099,12.6982167 C91.1806159,12.6982167 91.7055306,12.7263372 92.1179698,12.7825789 C92.530409,12.8388206 92.961589,12.9419288 93.4115226,13.0919067 L93.4115226,23.1591221 Z M110.452675,19.3347051 C109.027885,19.3347051 107.8562,19.7565116 106.937586,20.6001372 C106.018971,21.4437628 105.559671,22.6529414 105.559671,24.2277092 L115.233196,24.2277092 C115.233196,22.6904358 114.802016,21.4906307 113.939643,20.6282579 C113.07727,19.765885 111.914959,19.3347051 110.452675,19.3347051 Z M105.559671,29.5706447 C105.597165,30.2455452 105.700274,30.8923152 105.868999,31.5109739 C106.037724,32.1296327 106.309555,32.6732944 106.684499,33.1419753 C107.059444,33.6106562 107.574985,33.9949688 108.231139,34.2949246 C108.887292,34.5948803 109.702784,34.744856 110.677641,34.744856 C111.914958,34.744856 112.908547,34.4823986 113.658436,33.957476 C114.408326,33.4325534 114.895746,32.757663 115.120713,31.9327846 L125.806584,31.9327846 C125.581618,33.3575746 125.07545,34.6886084 124.288066,35.9259259 C123.500682,37.1632435 122.469599,38.2318199 121.194787,39.1316872 C119.919975,40.0315546 118.401472,40.7345654 116.639232,41.2407407 C114.876992,41.7469161 112.908561,42 110.733882,42 C108.184258,42 105.915876,41.6531813 103.928669,40.9595336 C101.941462,40.2658859 100.244863,39.2722973 98.8388203,37.978738 C97.4327776,36.6851787 96.3642012,35.138555 95.633059,33.3388203 C94.9019168,31.5390857 94.5363512,29.5144145 94.5363512,27.2647462 C94.5363512,25.2400447 94.8737964,23.3278554 95.5486968,21.5281207 C96.2235973,19.7283861 97.2265594,18.1630153 98.5576132,16.8319616 C99.8886669,15.5009078 101.547772,14.4417049 103.534979,13.654321 C105.522186,12.8669371 107.846809,12.473251 110.508916,12.473251 C113.05854,12.473251 115.308175,12.8388166 117.257888,13.5699588 C119.2076,14.301101 120.847959,15.2665692 122.179012,16.4663923 C123.510066,17.6662154 124.522402,19.0441166 125.216049,20.6001372 C125.909697,22.1561578 126.256516,23.7590224 126.256516,25.4087791 C126.256516,26.0461852 126.237769,26.6929551 126.200274,27.3491084 C126.16278,28.0052616 126.069045,28.7457663 125.919067,29.5706447 L105.559671,29.5706447 Z M145.491084,19.3347051 C144.066294,19.3347051 142.894609,19.7565116 141.975995,20.6001372 C141.05738,21.4437628 140.59808,22.6529414 140.59808,24.2277092 L150.271605,24.2277092 C150.271605,22.6904358 149.840425,21.4906307 148.978052,20.6282579 C148.115679,19.765885 146.953368,19.3347051 145.491084,19.3347051 Z M140.59808,29.5706447 C140.635574,30.2455452 140.738682,30.8923152 140.907407,31.5109739 C141.076133,32.1296327 141.347963,32.6732944 141.722908,33.1419753 C142.097853,33.6106562 142.613394,33.9949688 143.269547,34.2949246 C143.925701,34.5948803 144.741193,34.744856 145.716049,34.744856 C146.953367,34.744856 147.946956,34.4823986 148.696845,33.957476 C149.446734,33.4325534 149.934155,32.757663 150.159122,31.9327846 L160.844993,31.9327846 C160.620026,33.3575746 160.113859,34.6886084 159.326475,35.9259259 C158.539091,37.1632435 157.508008,38.2318199 156.233196,39.1316872 C154.958384,40.0315546 153.439881,40.7345654 151.677641,41.2407407 C149.9154,41.7469161 147.94697,42 145.772291,42 C143.222667,42 140.954285,41.6531813 138.967078,40.9595336 C136.979871,40.2658859 135.283272,39.2722973 133.877229,37.978738 C132.471186,36.6851787 131.40261,35.138555 130.671468,33.3388203 C129.940326,31.5390857 129.57476,29.5144145 129.57476,27.2647462 C129.57476,25.2400447 129.912205,23.3278554 130.587106,21.5281207 C131.262006,19.7283861 132.264968,18.1630153 133.596022,16.8319616 C134.927076,15.5009078 136.586181,14.4417049 138.573388,13.654321 C140.560595,12.8669371 142.885218,12.473251 145.547325,12.473251 C148.096949,12.473251 150.346584,12.8388166 152.296296,13.5699588 C154.246009,14.301101 155.886367,15.2665692 157.217421,16.4663923 C158.548475,17.6662154 159.56081,19.0441166 160.254458,20.6001372 C160.948106,22.1561578 161.294925,23.7590224 161.294925,25.4087791 C161.294925,26.0461852 161.276178,26.6929551 161.238683,27.3491084 C161.201189,28.0052616 161.107454,28.7457663 160.957476,29.5706447 L140.59808,29.5706447 Z M184.916324,8.98628258 C184.46639,8.87379916 184.063331,8.78943787 183.707133,8.73319616 C183.350936,8.67695445 182.891635,8.64883402 182.329218,8.64883402 C181.391856,8.64883402 180.623231,8.82693009 180.02332,9.18312757 C179.423408,9.53932505 179.123457,10.2985767 179.123457,11.4609053 L179.123457,13.260631 L184.916324,13.260631 L184.916324,20.9657064 L179.179698,20.9657064 L179.179698,41.21262 L168.156379,41.21262 L168.156379,20.9657064 L163.713306,20.9657064 L163.713306,13.260631 L168.156379,13.260631 L168.156379,11.7421125 C168.156379,9.34246628 168.475077,7.4302769 169.112483,6.00548697 C169.749889,4.58069704 170.584128,3.50274714 171.615226,2.77160494 C172.646324,2.04046274 173.818009,1.56241539 175.130316,1.33744856 C176.442622,1.11248173 177.792403,1 179.179698,1 C180.417016,1 181.523086,1.07498782 182.497942,1.22496571 C183.472799,1.37494359 184.278918,1.56241314 184.916324,1.78737997 L184.916324,8.98628258 Z M188.796982,1.8436214 L199.820302,1.8436214 L199.820302,41.21262 L188.796982,41.21262 L188.796982,1.8436214 Z M220.798354,42 C218.211235,42 215.90536,41.606314 213.880658,40.81893 C211.855957,40.0315461 210.149984,38.9723432 208.762689,37.6412894 C207.375393,36.3102357 206.325564,34.7542384 205.613169,32.973251 C204.900774,31.1922636 204.544582,29.2894477 204.544582,27.2647462 C204.544582,25.2400447 204.900774,23.3278554 205.613169,21.5281207 C206.325564,19.7283861 207.375393,18.1536419 208.762689,16.8038409 C210.149984,15.4540399 211.855957,14.3948369 213.880658,13.6262003 C215.90536,12.8575636 218.211235,12.473251 220.798354,12.473251 C223.385472,12.473251 225.691348,12.8575636 227.716049,13.6262003 C229.740751,14.3948369 231.446724,15.4540399 232.834019,16.8038409 C234.221315,18.1536419 235.280518,19.7283861 236.01166,21.5281207 C236.742802,23.3278554 237.108368,25.2400447 237.108368,27.2647462 C237.108368,29.2894477 236.742802,31.1922636 236.01166,32.973251 C235.280518,34.7542384 234.221315,36.3102357 232.834019,37.6412894 C231.446724,38.9723432 229.740751,40.0315461 227.716049,40.81893 C225.691348,41.606314 223.385472,42 220.798354,42 Z M220.798354,32.776406 C222.410616,32.776406 223.685409,32.2421178 224.622771,31.1735254 C225.560133,30.1049329 226.028807,28.8020196 226.028807,27.2647462 C226.028807,25.6899784 225.560133,24.3776916 224.622771,23.3278464 C223.685409,22.2780012 222.410616,21.7530864 220.798354,21.7530864 C219.223586,21.7530864 217.958167,22.2780012 217.002058,23.3278464 C216.045949,24.3776916 215.567901,25.6899784 215.567901,27.2647462 C215.567901,28.8020196 216.045949,30.1049329 217.002058,31.1735254 C217.958167,32.2421178 219.223586,32.776406 220.798354,32.776406 Z M239.97668,35.138546 C239.97668,34.2011842 240.154776,33.3294508 240.510974,32.5233196 C240.867171,31.7171885 241.345219,31.0048042 241.94513,30.3861454 C242.545042,29.7674866 243.257426,29.2800658 244.082305,28.9238683 C244.907183,28.5676708 245.807037,28.3895748 246.781893,28.3895748 C247.756749,28.3895748 248.665977,28.5676708 249.509602,28.9238683 C250.353228,29.2800658 251.084359,29.7674866 251.703018,30.3861454 C252.321677,31.0048042 252.809097,31.7171885 253.165295,32.5233196 C253.521492,33.3294508 253.699588,34.2011842 253.699588,35.138546 C253.699588,36.0759078 253.521492,36.9476411 253.165295,37.7537723 C252.809097,38.5599034 252.321677,39.2722877 251.703018,39.8909465 C251.084359,40.5096053 250.353228,40.9970261 249.509602,41.3532236 C248.665977,41.7094211 247.756749,41.8875171 246.781893,41.8875171 C245.807037,41.8875171 244.907183,41.7094211 244.082305,41.3532236 C243.257426,40.9970261 242.545042,40.5096053 241.94513,39.8909465 C241.345219,39.2722877 240.867171,38.5599034 240.510974,37.7537723 C240.154776,36.9476411 239.97668,36.0759078 239.97668,35.138546 Z" id="freeflo." fill="#000000"></path>
        </g>
    </g>
</svg>